<svg width="32" height="32" viewBox="0 0 32 32" fill="none" xmlns="http://www.w3.org/2000/svg">
  <rect width="32" height="32" rx="6" fill="#2A9D8F"/>
  <path d="M9 10L7 12V24C7 24.5304 7.21071 25.0391 7.58579 25.4142C7.96086 25.7893 8.46957 26 9 26H23C23.5304 26 24.0391 25.7893 24.4142 25.4142C24.7893 25.0391 25 24.5304 25 24V12L23 10H9Z" stroke="white" stroke-width="2" stroke-linecap="round" stroke-linejoin="round"/>
  <path d="M7 12H25" stroke="white" stroke-width="2" stroke-linecap="round" stroke-linejoin="round"/>
  <path d="M20 16C20 17.0609 19.5786 18.0783 18.8284 18.8284C18.0783 19.5786 17.0609 20 16 20C14.9391 20 13.9217 19.5786 13.1716 18.8284C12.4214 18.0783 12 17.0609 12 16" stroke="white" stroke-width="2" stroke-linecap="round" stroke-linejoin="round"/>
</svg>
